<svg width="24" height="24" viewBox="0 0 24 24" fill="none" xmlns="http://www.w3.org/2000/svg">
    <g clip-path="url(#0tcoqejf7a)" fill="#fff">
        <path d="m23.715 9.165-11.25-9a.75.75 0 0 0-.938 0l-11.25 9A.75.75 0 0 0 .75 10.5h1.5v12.75A.75.75 0 0 0 3 24h15v-1.5h-3v-6.75a.75.75 0 0 0-.75-.75h-4.5a.75.75 0 0 0-.75.75v6.75H3.75v-12H16.5V9H2.887L12 1.71 21.113 9H21a.75.75 0 0 0-.75.75v4.5h1.5V10.5h1.5a.75.75 0 0 0 .465-1.335zM10.5 16.5h3v6h-3v-6z"/>
        <path d="m18.75 19.943-.968-.968-1.057 1.058 1.5 1.5a.75.75 0 0 0 1.057 0l4.5-4.5-1.057-1.058-3.975 3.968z"/>
    </g>
    <defs>
        <clipPath id="0tcoqejf7a">
            <path fill="#fff" d="M0 0h24v24H0z"/>
        </clipPath>
    </defs>
</svg>
