<svg width="20" height="20" viewBox="0 0 20 20" fill="none" xmlns="http://www.w3.org/2000/svg">
    <g clip-path="url(#9j4rp1r65a)" fill="#fff">
        <path d="m19.762 7.638-9.375-7.5a.625.625 0 0 0-.78 0L.23 7.638A.625.625 0 0 0 .625 8.75h1.25v10.625A.625.625 0 0 0 2.5 20H15v-1.25h-2.5v-5.625a.625.625 0 0 0-.625-.625h-3.75a.625.625 0 0 0-.625.625v5.625H3.125v-10H13.75V7.5H2.406L10 1.425 17.594 7.5H17.5a.625.625 0 0 0-.625.625v3.75h1.25V8.75h1.25a.625.625 0 0 0 .387-1.112zM8.75 13.75h2.5v5h-2.5v-5z"/>
        <path d="m15.625 16.619-.806-.806-.882.88 1.25 1.25a.625.625 0 0 0 .882 0l3.75-3.75-.881-.88-3.313 3.306z"/>
    </g>
    <defs>
        <clipPath id="9j4rp1r65a">
            <path fill="#fff" d="M0 0h20v20H0z"/>
        </clipPath>
    </defs>
</svg>
