<svg width="16" height="16" viewBox="0 0 16 16" fill="none" xmlns="http://www.w3.org/2000/svg">
    <path d="m15.543 1.663-.027-.017L12.175 0 8.569 4.808l1.659 2.213a3.416 3.416 0 0 1-3.207 3.207l-2.213-1.66L0 12.176l1.632 3.313.014.028.017.027a.968.968 0 0 0 .825.457h.862A12.65 12.65 0 0 0 16 3.35v-.862a.968.968 0 0 0-.457-.825zm-.778 1.687c0 6.295-5.12 11.415-11.415 11.415h-.697L1.56 12.548l3.249-2.436 1.808 1.356h.206a4.651 4.651 0 0 0 4.645-4.646v-.205l-1.356-1.809 2.436-3.248 2.217 1.093v.697z" fill="#fff"/>
</svg>
