<svg width="20" height="20" viewBox="0 0 20 20" fill="none" xmlns="http://www.w3.org/2000/svg">
    <path d="m19.428 2.078-.033-.02L15.22 0 10.71 6.01l2.074 2.766a4.27 4.27 0 0 1-4.01 4.009L6.01 10.71 0 15.219l2.04 4.141.018.035.02.033A1.21 1.21 0 0 0 3.11 20h1.078A15.813 15.813 0 0 0 20 4.188V3.11a1.21 1.21 0 0 0-.572-1.032zm-.971 2.11c0 7.868-6.401 14.269-14.27 14.269h-.871L1.95 15.685l4.06-3.045 2.26 1.695h.257a5.814 5.814 0 0 0 5.808-5.807v-.257L12.64 6.01l3.045-4.06 2.772 1.365v.872z" fill="#2B2B2B"/>
</svg>
