<svg width="22" height="22" viewBox="0 0 22 22" fill="none" xmlns="http://www.w3.org/2000/svg">
    <path d="M11 0C8.01 0 7.637.014 6.467.064c-1.175.058-1.97.24-2.672.512-.723.283-1.339.66-1.947 1.272A5.333 5.333 0 0 0 .576 3.795C.304 4.497.122 5.292.064 6.467.01 7.637 0 8.01 0 11s.014 3.363.064 4.533c.058 1.172.24 1.97.512 2.671.283.724.66 1.34 1.272 1.948a5.334 5.334 0 0 0 1.947 1.272c.702.269 1.5.454 2.672.512C7.637 21.99 8.01 22 11 22s3.363-.014 4.533-.064c1.172-.058 1.97-.244 2.671-.512a5.397 5.397 0 0 0 1.948-1.271 5.307 5.307 0 0 0 1.272-1.948c.269-.702.454-1.5.512-2.672C21.99 14.363 22 13.99 22 11s-.014-3.363-.064-4.533c-.058-1.172-.244-1.974-.512-2.672a5.397 5.397 0 0 0-1.271-1.947A5.306 5.306 0 0 0 18.204.576c-.702-.272-1.5-.454-2.672-.512C14.363.01 13.99 0 11 0zm0 1.98c2.937 0 3.287.015 4.448.064 1.07.05 1.654.23 2.04.38.517.2.878.437 1.269.823.383.383.62.749.82 1.265.15.387.33.97.38 2.04.049 1.161.063 1.513.063 4.449s-.014 3.287-.068 4.448c-.057 1.07-.236 1.653-.387 2.04-.208.517-.44.878-.824 1.268a3.47 3.47 0 0 1-1.268.82c-.382.151-.974.33-2.048.38-1.167.05-1.511.064-4.455.064-2.945 0-3.288-.014-4.456-.068-1.07-.058-1.661-.236-2.048-.387A3.45 3.45 0 0 1 3.2 18.74a3.303 3.303 0 0 1-.823-1.267c-.154-.383-.33-.974-.387-2.049-.039-1.153-.058-1.51-.058-4.44 0-2.93.02-3.288.058-4.456.057-1.074.233-1.664.387-2.048.19-.523.437-.88.823-1.268.383-.383.742-.63 1.265-.824.387-.15.963-.33 2.038-.383 1.167-.042 1.51-.057 4.45-.057L11 1.98zm0 3.374a5.645 5.645 0 0 0-5.647 5.647A5.645 5.645 0 0 0 11 16.648a5.645 5.645 0 0 0 5.647-5.647A5.645 5.645 0 0 0 11 5.354zm0 9.314a3.665 3.665 0 0 1-3.667-3.667A3.665 3.665 0 0 1 11 7.334a3.665 3.665 0 0 1 3.667 3.667A3.665 3.665 0 0 1 11 14.668zm7.195-9.54a1.322 1.322 0 0 1-2.643 0 1.322 1.322 0 0 1 2.643 0z" fill="#3A0CA3"/>
</svg>
