<svg width="42" height="42" viewBox="0 0 42 42" fill="none" xmlns="http://www.w3.org/2000/svg">
    <path d="m39.633 32.976-6.757-6.757-5.197-2.147a14.584 14.584 0 0 0 2.654-8.405C30.333 7.579 23.753 1 15.667 1 7.579 1 1 7.58 1 15.667s6.58 14.666 14.667 14.666c3.034.004 5.995-.94 8.468-2.698l2.141 5.183 6.757 6.758a4.665 4.665 0 0 0 7.612-1.514 4.668 4.668 0 0 0-1.012-5.086zM3.667 15.666c0-6.616 5.383-12 12-12 6.616 0 12 5.384 12 12 0 6.617-5.384 12-12 12-6.617 0-12-5.383-12-12zm34.08 22.024a2.002 2.002 0 0 1-2.828 0l-6.381-6.38-1.991-4.82 4.82 1.99 6.38 6.382a2.003 2.003 0 0 1 0 2.828z" fill="#fff" stroke="#fff" stroke-width=".6"/>
</svg>
