<svg width="20" height="20" viewBox="0 0 20 20" fill="none" xmlns="http://www.w3.org/2000/svg">
    <path d="M9.536 19.072C4.279 19.072 0 14.792 0 9.536 0 4.279 4.28 0 9.536 0c5.256 0 9.536 4.28 9.536 9.536 0 5.256-4.28 9.536-9.536 9.536zm0-17.677c-4.494 0-8.14 3.657-8.14 8.14 0 4.485 3.646 8.141 8.14 8.141 4.493 0 8.14-3.656 8.14-8.14s-3.647-8.14-8.14-8.14zM19.305 20.002a.69.69 0 0 1-.494-.205l-1.86-1.86a.702.702 0 0 1 0-.987c.27-.27.716-.27.986 0l1.86 1.861c.27.27.27.716 0 .986a.69.69 0 0 1-.492.205z" fill="#fff"/>
</svg>
