<svg width="14" height="14" viewBox="0 0 14 14" fill="none" xmlns="http://www.w3.org/2000/svg">
    <path d="M12.026 14c-.295 0-.539-.221-.539-.488V6.349c0-.267.244-.489.539-.489.294 0 .538.222.538.489v7.163c0 .267-.244.488-.538.488zM12.026 4.233c-.295 0-.539-.222-.539-.489V.488c0-.267.244-.488.539-.488.294 0 .538.221.538.488v3.256c0 .267-.244.489-.538.489zM7 14c-.294 0-.538-.221-.538-.488v-3.256c0-.267.244-.489.538-.489.294 0 .538.222.538.489v3.256c0 .267-.244.488-.538.488zM7 8.14c-.294 0-.538-.222-.538-.489V.488C6.462.221 6.706 0 7 0c.294 0 .538.221.538.488v7.163c0 .267-.244.489-.538.489zM1.974 14c-.294 0-.538-.221-.538-.488V6.349c0-.267.244-.489.538-.489.295 0 .539.222.539.489v7.163c0 .267-.244.488-.539.488zM1.974 4.233c-.294 0-.538-.222-.538-.489V.488c0-.267.244-.488.538-.488.295 0 .539.221.539.488v3.256c0 .267-.244.489-.539.489z" fill="#3A0CA3"/>
    <path d="M3.41 6.837H.538C.244 6.837 0 6.616 0 6.35s.244-.489.538-.489H3.41c.295 0 .539.222.539.489s-.244.488-.539.488zM13.461 6.837H10.59c-.295 0-.539-.221-.539-.488s.244-.489.539-.489h2.871c.295 0 .539.222.539.489s-.244.488-.539.488zM8.436 8.14H5.564c-.294 0-.538-.222-.538-.489s.244-.488.538-.488h2.872c.294 0 .538.221.538.488s-.244.489-.538.489z" fill="#3A0CA3"/>
</svg>
