<svg width="40" height="40" viewBox="0 0 40 40" fill="none" xmlns="http://www.w3.org/2000/svg">
    <path d="M30.531 38.883H19.128a1.39 1.39 0 0 1-1.38-1.38c0-.754.626-1.38 1.38-1.38H30.53c1.968 0 3.9-1.636 4.23-3.586l2.446-14.64c.221-1.324-.514-3.219-1.544-4.046L22.917 3.66c-1.472-1.177-3.918-1.177-5.371-.018L4.8 13.85c-1.048.845-1.766 2.722-1.545 4.046l.515 3.108a1.365 1.365 0 0 1-1.14 1.582c-.754.147-1.453-.386-1.582-1.14l-.515-3.09c-.386-2.28.717-5.205 2.538-6.658L15.817 1.49c2.465-1.987 6.345-1.968 8.828.018L37.391 11.7c1.803 1.453 2.906 4.377 2.538 6.658l-2.446 14.64c-.551 3.255-3.66 5.886-6.952 5.886zM7.357 39.232a1.382 1.382 0 0 1-1.38-1.342c-.054-2.483-1.691-4.12-4.174-4.175A1.378 1.378 0 0 1 .46 32.297a1.37 1.37 0 0 1 1.38-1.342h.036c3.955.092 6.787 2.906 6.86 6.86a1.39 1.39 0 0 1-1.342 1.416h-.037z" fill="#4361EE"/>
    <path d="M12.875 39.232c-.754 0-1.38-.607-1.38-1.36a11.269 11.269 0 0 0-.588-3.459c-.938-2.685-2.943-4.671-5.628-5.628a10.266 10.266 0 0 0-3.458-.588c-.754 0-1.38-.625-1.36-1.398 0-.754.625-1.361 1.379-1.361h.018c1.527.018 2.98.276 4.34.754 3.477 1.232 6.07 3.826 7.302 7.302.479 1.36.736 2.832.755 4.34 0 .773-.607 1.398-1.38 1.398zM1.84 39.692c-1.03 0-1.84-.828-1.84-1.84 0-1.01.828-1.838 1.84-1.838 1.01 0 1.838.827 1.838 1.839 0 1.011-.809 1.84-1.839 1.84z" fill="#4361EE"/>
</svg>
