<svg width="44" height="48" viewBox="0 0 44 48" fill="none" xmlns="http://www.w3.org/2000/svg">
    <path d="M42 16.496v15.058a6.987 6.987 0 0 1-3.456 6.01l-13.077 7.55a6.963 6.963 0 0 1-6.934 0l-13.077-7.55A6.933 6.933 0 0 1 2 31.553V16.495a6.987 6.987 0 0 1 3.456-6.01l13.077-7.551a6.963 6.963 0 0 1 6.934 0l13.077 7.55A6.96 6.96 0 0 1 42 16.496z" stroke="#4361EE" stroke-width="3" stroke-linecap="round" stroke-linejoin="round"/>
    <path d="M22.011 21.823a5.13 5.13 0 1 0 0-10.258 5.13 5.13 0 0 0 0 10.258zM30.817 34.284c0-3.963-3.94-7.177-8.806-7.177-4.865 0-8.806 3.214-8.806 7.177" stroke="#4361EE" stroke-width="3" stroke-linecap="round" stroke-linejoin="round"/>
</svg>
